<svg width="259" height="259" xmlns="http://www.w3.org/2000/svg" xmlns:xlink="http://www.w3.org/1999/xlink" overflow="hidden"><defs><clipPath id="clip0"><rect x="1021" y="20" width="259" height="259"/></clipPath></defs><g clip-path="url(#clip0)" transform="translate(-1021 -20)"><path d="M1150.5 216.948C1123.52 216.948 1101.94 195.365 1101.94 168.385 1101.94 141.406 1123.52 119.823 1150.5 119.823 1177.48 119.823 1199.06 141.406 1199.06 168.385 1199.06 195.365 1177.48 216.948 1150.5 216.948ZM1096.54 130.615 1064.17 130.615 1064.17 109.031 1096.54 109.031 1096.54 130.615ZM1247.62 87.4479 1193.67 87.4479 1177.48 60.4688 1123.52 60.4688 1107.33 87.4479 1053.38 87.4479C1047.44 87.4479 1042.58 92.3042 1042.58 98.2396L1042.58 227.74C1042.58 233.675 1047.44 238.531 1053.38 238.531L1247.62 238.531C1253.56 238.531 1258.42 233.675 1258.42 227.74L1258.42 98.2396C1258.42 92.3042 1253.56 87.4479 1247.62 87.4479Z" fill="#707070"/><path d="M1150.5 141.406C1135.39 141.406 1123.52 153.277 1123.52 168.385 1123.52 183.494 1135.39 195.365 1150.5 195.365 1165.61 195.365 1177.48 183.494 1177.48 168.385 1177.48 153.277 1165.61 141.406 1150.5 141.406ZM1150.5 206.156C1129.46 206.156 1112.73 189.429 1112.73 168.385 1112.73 147.342 1129.46 130.615 1150.5 130.615 1171.54 130.615 1188.27 147.342 1188.27 168.385 1188.27 189.429 1171.54 206.156 1150.5 206.156Z" fill="#707070"/></g></svg>